<?xml version="1.0" encoding="utf-8"?>
<!-- Generator: Adobe Illustrator 16.0.0, SVG Export Plug-In . SVG Version: 6.00 Build 0)  -->
<!DOCTYPE svg PUBLIC "-//W3C//DTD SVG 1.1//EN" "http://www.w3.org/Graphics/SVG/1.1/DTD/svg11.dtd">
<svg version="1.1" id="Capa_1" xmlns="http://www.w3.org/2000/svg" xmlns:xlink="http://www.w3.org/1999/xlink" x="0px" y="0px"
	 width="661.6px" height="661.481px" viewBox="90.152 264.587 661.6 661.481" enable-background="new 90.152 264.587 661.6 661.481"
	 xml:space="preserve">
<g>
	<path fill="#084795" d="M641.473,482.718c-5.116,2.646-7.057,8.821-4.41,13.938c20.817,39.695,31.756,84.507,31.756,129.494
		c0,74.627-29.109,144.667-81.684,197.417c-52.75,52.751-122.79,81.684-197.417,81.684s-144.667-29.109-197.417-81.684
		c-52.751-52.75-81.684-122.79-81.684-197.417s29.109-144.667,81.684-197.417c52.574-52.751,123.143-81.508,197.593-81.508
		c45.165,0,89.976,10.938,129.671,31.756c5.116,2.646,11.291,0.706,13.938-4.41s0.706-11.291-4.41-13.938
		c-42.694-22.405-90.682-34.226-139.198-34.226c-80.096,0-155.428,31.227-211.883,87.858
		c-56.456,56.632-87.859,131.964-87.859,211.884s31.228,155.429,87.859,211.884c56.631,56.455,131.787,88.035,211.883,88.035
		c80.097,0,155.429-31.227,211.884-87.858c56.456-56.632,87.859-131.965,87.859-211.884c0-48.517-11.82-96.504-34.227-139.198
		C652.941,482.011,646.589,480.071,641.473,482.718z"/>
	<path fill="#084795" d="M522.564,441.258c3.176-4.763,1.765-11.114-2.999-14.29c-38.637-25.229-83.447-38.46-129.671-38.46
		c-131.082,0-237.817,106.736-237.817,237.818s106.735,237.642,237.817,237.642c131.083,0,237.818-106.736,237.818-237.818
		c0-46.223-13.231-91.034-38.46-129.671c-3.176-4.764-9.527-6.175-14.291-2.999c-4.763,3.176-6.174,9.526-2.999,14.29
		c22.936,35.285,35.108,76.215,35.108,118.38c0,119.614-97.386,217-217,217s-217-97.386-217-217s97.209-217,216.823-217
		c42.165,0,83.272,12.173,118.38,35.108C513.037,447.433,519.565,446.021,522.564,441.258z"/>
	<path fill="#084795" d="M486.398,491.539c2.999-4.764,1.588-11.291-3.353-14.291c-27.875-17.465-60.16-26.64-93.151-26.64
		c-96.855,0-175.717,78.861-175.717,175.718c0,96.855,78.861,175.717,175.717,175.717c96.856,0,175.718-78.861,175.718-175.717
		c0-32.991-9.174-65.276-26.641-93.151c-2.999-4.764-9.35-6.352-14.29-3.353c-4.763,3-6.351,9.351-3.352,14.291
		c15.349,24.522,23.641,53.103,23.641,82.213c0,85.564-69.511,155.075-155.076,155.075c-85.564,0-155.075-69.511-155.075-155.075
		c0-85.565,69.511-155.076,155.075-155.076c29.11,0,57.69,8.115,82.214,23.641C477.047,497.889,483.399,496.302,486.398,491.539z"/>
	<path fill="#084795" d="M444.408,537.761c2.471-5.116,0.354-11.291-4.763-13.761c-15.525-7.587-32.286-11.468-49.575-11.468
		c-62.63,0-113.792,50.986-113.792,113.793s50.985,113.792,113.792,113.792s113.793-50.985,113.793-113.792
		c0-17.466-3.882-34.05-11.291-49.575c-2.471-5.116-8.645-7.233-13.762-4.764c-5.116,2.47-7.232,8.645-4.763,13.762
		c6.175,12.702,9.351,26.286,9.351,40.577c0,51.339-41.813,92.975-92.976,92.975c-51.162,0-92.975-41.813-92.975-92.975
		c0-51.163,41.813-92.976,92.975-92.976c14.29,0,27.875,3.176,40.577,9.351C435.764,544.995,441.939,542.878,444.408,537.761z"/>
	<path fill="#084795" d="M383.366,595.981c5.646-1.235,9.174-6.704,7.939-12.174c-1.235-5.646-6.704-9.174-12.174-7.938
		c-23.641,5.116-40.93,26.287-40.93,50.633c0,28.581,23.111,51.692,51.691,51.692c24.523,0,45.694-17.29,50.634-41.283
		c1.059-5.646-2.47-11.114-8.115-12.173s-11.115,2.47-12.174,8.115c-2.999,14.29-15.701,24.699-30.345,24.699
		c-17.112,0-31.05-13.938-31.05-31.051C358.844,611.682,369.253,598.98,383.366,595.981z"/>
	<path fill="#F24C4C" d="M750.856,332.934c-1.588-3.882-5.293-6.352-9.527-6.352h-51.691v-51.691c0-4.234-2.471-7.939-6.352-9.527
		c-3.882-1.588-8.292-0.705-11.291,2.294L542.853,396.8c-1.94,1.94-2.999,4.587-2.999,7.233v57.69L382.66,618.916
		c-4.058,4.058-4.058,10.586,0,14.644c1.941,1.94,4.588,2.999,7.233,2.999c2.646,0,5.293-1.059,7.233-2.999l157.193-157.193h57.866
		c2.823,0,5.293-1.059,7.233-2.999l129.142-129.142C751.738,341.226,752.619,336.815,750.856,332.934z M607.952,455.724h-32.814
		l80.625-80.625c4.058-4.058,4.058-10.585,0-14.644c-4.058-4.058-10.585-4.058-14.643,0l-80.625,80.626v-32.814l108.5-108.501
		v37.049c0,5.646,4.587,10.409,10.408,10.409h37.049L607.952,455.724z"/>
</g>
</svg>
