<?xml version="1.0" encoding="utf-8"?>
<!-- Generator: Adobe Illustrator 16.0.0, SVG Export Plug-In . SVG Version: 6.00 Build 0)  -->
<!DOCTYPE svg PUBLIC "-//W3C//DTD SVG 1.1//EN" "http://www.w3.org/Graphics/SVG/1.1/DTD/svg11.dtd">
<svg version="1.1" id="Capa_1" xmlns="http://www.w3.org/2000/svg" xmlns:xlink="http://www.w3.org/1999/xlink" x="0px" y="0px"
	 width="690.871px" height="524.378px" viewBox="64.747 329.798 690.871 524.378"
	 enable-background="new 64.747 329.798 690.871 524.378" xml:space="preserve">
<g>
	<g>
		<g>
			<path fill="#F24C4C" d="M410.183,504.594c-72.333,0-131.082,58.749-131.082,131.082c0,72.334,58.749,131.083,131.082,131.083
				s131.082-58.749,131.082-131.083C541.265,563.343,482.693,504.77,410.183,504.594z M410.183,723.181
				c-48.34,0-87.329-39.166-87.329-87.329s39.166-87.329,87.329-87.329s87.329,39.166,87.329,87.329
				C497.689,684.015,458.523,723.181,410.183,723.181z"/>
			<path fill="#F24C4C" d="M536.678,347.048c-14.643-4.058-29.639-7.409-44.635-10.056l-7.41,43.047
				c13.761,2.471,27.346,5.47,40.577,9.174L536.678,347.048z"/>
			<path fill="#F24C4C" d="M602.484,419.029l19.583-38.99c-12.35-6.175-25.052-11.996-37.755-16.937l-4.058-1.588l-15.701,40.754
				l3.528,1.412C579.725,408.267,591.193,413.384,602.484,419.029z"/>
			<path fill="#F24C4C" d="M731.096,456.43c-21.348-19.936-44.459-37.931-69.158-53.633l-23.464,36.873
				c22.405,14.29,43.4,30.521,62.63,48.692L731.096,456.43z"/>
			<path fill="#F24C4C" d="M252.461,403.504c60.689-23.994,125.789-33.697,190.889-28.757l3.353-43.577
				c-71.628-5.469-143.608,5.47-210.296,31.757c-54.515,21.699-104.442,53.279-147.137,93.504l29.992,31.933
				C157.899,451.844,203.063,423.263,252.461,403.504z"/>
			<path fill="#084795" d="M750.679,625.797c-31.58-61.748-79.391-113.793-138.14-150.665c-123.672-77.273-280.512-77.273-404.36,0
				c-58.749,36.872-106.56,88.917-138.315,150.665l-5.116,9.879l5.116,9.88c31.58,61.748,79.391,113.793,138.139,150.665
				c123.673,77.273,280.513,77.273,404.361,0c58.749-36.872,106.56-88.917,138.139-150.665l5.116-9.879L750.679,625.797z
				 M589.252,759.348c-109.559,68.275-248.403,68.275-357.962,0c-48.869-30.521-89.27-73.039-117.145-123.496
				c28.051-50.457,68.275-92.975,117.145-123.496c109.559-68.275,248.403-68.275,357.962,0
				c48.869,30.521,89.27,73.039,117.145,123.496C678.522,686.133,638.121,728.651,589.252,759.348z"/>
			<rect x="388.483" y="613.976" fill="#084795" width="43.753" height="43.753"/>
		</g>
	</g>
</g>
</svg>
